<svg xmlns="http://www.w3.org/2000/svg" width="25" height="25" viewBox="0 0 25 25" fill="none">
<path d="M5.63715 14.7541H20.0994V12.3437H5.63715V14.7541ZM5.63715 11.1385H20.0994V8.72818H5.63715V11.1385ZM5.63715 7.52299H20.0994V5.11262H5.63715V7.52299ZM3.22678 19.5749C2.56393 19.5749 1.99669 19.339 1.52506 18.8674C1.05343 18.3958 0.81721 17.8281 0.816406 17.1645V2.70224C0.816406 2.03939 1.05262 1.47215 1.52506 1.00052C1.99749 0.52889 2.56473 0.292674 3.22678 0.29187H22.5098C23.1726 0.29187 23.7403 0.528087 24.2127 1.00052C24.6851 1.47295 24.9209 2.04019 24.9201 2.70224V24.3956L20.0994 19.5749H3.22678Z" fill="currentColor"/>
</svg>