<svg xmlns="http://www.w3.org/2000/svg" width="27" height="28" viewBox="0 0 27 28" fill="none">
<path d="M0.263939 13.9446C0.263209 16.3511 0.875108 18.7003 2.03841 20.7711L0.152344 27.8465L7.19966 25.9479C9.14143 27.0357 11.3277 27.6092 13.5523 27.6101H13.558C20.8845 27.6101 26.8487 21.484 26.8519 13.9556C26.8531 10.307 25.4714 6.87612 22.9617 4.2952C20.4516 1.71461 17.1142 0.292394 13.558 0.290894C6.23024 0.290894 0.26686 6.41609 0.263939 13.9446ZM4.46088 20.4145L4.19774 19.9853C3.09159 18.1782 2.50774 16.0899 2.50858 13.9455C2.51087 7.68796 7.46739 2.59695 13.5622 2.59695C16.5137 2.59824 19.2876 3.78041 21.3739 5.9253C23.4601 8.07041 24.6081 10.9219 24.6073 13.9547C24.6046 20.2123 19.648 25.3039 13.558 25.3039H13.5536C11.5707 25.3028 9.62588 24.7557 7.92983 23.7217L7.52621 23.4758L3.34419 24.6023L4.46088 20.4145Z" fill="currentColor"/>
<path d="M10.2221 8.5498C9.97605 7.97502 9.71709 7.96342 9.48309 7.95334C9.29148 7.94467 9.07243 7.94532 8.85359 7.94532C8.63454 7.94532 8.27864 8.03193 7.97781 8.37714C7.67667 8.72268 6.82812 9.5577 6.82812 11.256C6.82812 12.9545 8.00514 14.5958 8.16922 14.8263C8.33351 15.0564 10.4415 18.6532 13.78 20.0369C16.5546 21.1867 17.1192 20.958 17.7214 20.9004C18.3237 20.8429 19.6648 20.0656 19.9384 19.2595C20.2122 18.4535 20.2122 17.7627 20.1301 17.6183C20.048 17.4745 19.8289 17.3881 19.5005 17.2155C19.1719 17.0429 17.5571 16.2077 17.2561 16.0925C16.9549 15.9774 16.736 15.92 16.5169 16.2656C16.2979 16.6107 15.6689 17.3881 15.4772 17.6183C15.2857 17.849 15.094 17.8778 14.7656 17.7051C14.4369 17.5319 13.3791 17.1678 12.1241 15.9919C11.1477 15.0769 10.4885 13.947 10.2969 13.6013C10.1053 13.2562 10.2764 13.0691 10.4411 12.8971C10.5886 12.7425 10.7696 12.494 10.934 12.2925C11.0978 12.0909 11.1524 11.9471 11.262 11.7169C11.3716 11.4865 11.3167 11.2849 11.2347 11.1122C11.1524 10.9395 10.5142 9.23232 10.2221 8.5498Z" fill="currentColor"/>
</svg>