<svg width="53" height="65" viewBox="0 0 53 65" fill="none" xmlns="http://www.w3.org/2000/svg">
<g filter="url(#filter0_d_193_131)">
<path d="M27.1311 50.552C24.1257 50.552 21.4731 50.0613 19.1731 49.08C16.9037 48.068 15.1097 46.688 13.7911 44.94C12.5031 43.1613 11.7824 41.1373 11.6291 38.868H14.2051C14.5117 41.6893 15.7844 43.9587 18.0231 45.676C20.2924 47.3627 23.3284 48.206 27.1311 48.206C30.9031 48.206 33.7397 47.516 35.6411 46.136C37.5424 44.7253 38.4931 43.0233 38.4931 41.03C38.4931 39.7727 38.1864 38.6687 37.5731 37.718C36.9904 36.7673 35.9324 35.97 34.3991 35.326C32.8964 34.6513 30.7651 34.1453 28.0051 33.808L23.9571 33.302C20.3384 32.842 17.5324 31.9067 15.5391 30.496C13.5764 29.0547 12.5951 27.046 12.5951 24.47C12.5951 22.722 13.1317 21.1273 14.2051 19.686C15.3091 18.2447 16.8731 17.0947 18.8971 16.236C20.9517 15.3773 23.3897 14.948 26.2111 14.948C29.0631 14.948 31.5164 15.408 33.5711 16.328C35.6564 17.2173 37.2817 18.4593 38.4471 20.054C39.6124 21.6487 40.2411 23.4887 40.3331 25.574H37.8031C37.5577 23.182 36.4537 21.204 34.4911 19.64C32.5591 18.076 29.7837 17.294 26.1651 17.294C22.4544 17.294 19.6944 17.984 17.8851 19.364C16.0757 20.744 15.1711 22.446 15.1711 24.47C15.1711 25.6047 15.4624 26.6013 16.0451 27.46C16.6277 28.3187 17.5937 29.0393 18.9431 29.622C20.3231 30.2047 22.2091 30.6493 24.6011 30.956L28.6491 31.462C31.6851 31.83 34.1077 32.4433 35.9171 33.302C37.7571 34.13 39.0757 35.188 39.8731 36.476C40.6704 37.764 41.0691 39.282 41.0691 41.03C41.0691 42.8087 40.5171 44.4187 39.4131 45.86C38.3397 47.3013 36.7604 48.4513 34.6751 49.31C32.6204 50.138 30.1057 50.552 27.1311 50.552ZM27.5451 11.728V53.772H25.2451V11.728H27.5451Z" fill="url(#paint0_linear_193_131)"/>
</g>
<defs>
<filter id="filter0_d_193_131" x="0.60942" y="0.708541" width="51.4784" height="64.0829" filterUnits="userSpaceOnUse" color-interpolation-filters="sRGB">
<feFlood flood-opacity="0" result="BackgroundImageFix"/>
<feColorMatrix in="SourceAlpha" type="matrix" values="0 0 0 0 0 0 0 0 0 0 0 0 0 0 0 0 0 0 127 0" result="hardAlpha"/>
<feOffset/>
<feGaussianBlur stdDeviation="5.50974"/>
<feComposite in2="hardAlpha" operator="out"/>
<feColorMatrix type="matrix" values="0 0 0 0 0.239216 0 0 0 0 0.815686 0 0 0 0 0.945098 0 0 0 1 0"/>
<feBlend mode="normal" in2="BackgroundImageFix" result="effect1_dropShadow_193_131"/>
<feBlend mode="normal" in="SourceGraphic" in2="effect1_dropShadow_193_131" result="shape"/>
</filter>
<linearGradient id="paint0_linear_193_131" x1="2.33824" y1="27.0886" x2="51.7443" y2="27.0886" gradientUnits="userSpaceOnUse">
<stop stop-color="white"/>
<stop offset="0.39" stop-color="#01E0D9"/>
</linearGradient>
</defs>
</svg>
