<svg width="65" height="78" viewBox="0 0 65 78" fill="none" xmlns="http://www.w3.org/2000/svg">
<g filter="url(#filter0_d_193_211)">
<path d="M48.8502 32.751H48.7729C47.7181 32.7452 46.6989 33.1321 45.9142 33.8361C45.279 32.0814 43.6649 30.82 41.7743 30.82C40.6155 30.8281 39.5087 31.303 38.7059 32.1377C37.9677 30.646 36.4869 29.634 34.7842 29.634H34.7019C33.7894 29.62 32.899 29.9163 32.1771 30.4737V19.8387C32.1771 17.2686 30.1726 15.178 27.7344 15.178C25.299 15.178 23.3049 17.2673 23.3036 19.8355L23.2833 40.936L22.087 39.4857C21.038 38.182 19.4939 37.3725 17.8233 37.2503C16.187 37.1384 14.5774 37.7067 13.3757 38.8214L12.3348 39.6823C11.9992 39.9601 11.9034 40.4336 12.1044 40.8196L22.2243 60.2376C24.0747 63.7862 27.5953 66 31.4122 66H42.8169V65.9901C48.5994 65.9901 53.2878 60.9812 53.2937 54.831C53.2959 52.0793 53.2856 50.0283 53.2874 48.366C53.2932 43.9187 53.2887 42.2776 53.2774 37.3779C53.2715 34.8137 51.2815 32.751 48.8502 32.751ZM51.4234 48.3597C51.4216 50.0224 51.4189 52.0815 51.4162 54.8333C51.4112 59.9666 47.5292 64.1524 42.7627 64.1524H31.4127C28.2883 64.1524 25.3966 62.3192 23.8665 59.3844L14.0908 40.6329L14.5733 40.2311C14.5855 40.2212 14.5973 40.2095 14.609 40.1991C15.4389 39.4194 16.5556 39.019 17.6927 39.0934C18.8551 39.1822 19.9276 39.7495 20.6545 40.6591L23.4865 44.099C23.7341 44.4007 24.1452 44.5139 24.5129 44.3827C24.8807 44.2515 25.1264 43.9033 25.1264 43.5137L25.1432 19.8364C25.1441 18.286 26.3186 17.0247 27.7354 17.0247C29.1521 17.0247 30.3266 18.2874 30.3266 19.8387V34.1148C30.3266 34.1644 30.3244 34.2144 30.3244 34.2649C30.3244 34.2866 30.3266 34.3087 30.3266 34.3299V40.4336C30.3266 40.9437 30.7409 41.3572 31.2519 41.3572C31.7628 41.3572 32.1771 40.9437 32.1771 40.4336V34.1459C32.1771 32.65 33.3218 31.4811 34.7019 31.4811H34.7842C36.2018 31.4811 37.3813 32.7145 37.3813 34.2658V39.851C37.3813 40.361 37.7956 40.7745 38.3065 40.7745C38.8175 40.7745 39.2317 40.361 39.2317 39.851V35.469C39.2317 33.9172 40.3548 32.655 41.7801 32.655C43.1973 32.655 44.3204 33.9168 44.3204 35.469V39.603C44.3204 40.113 44.7346 40.5265 45.2456 40.5265C45.7565 40.5265 46.1708 40.113 46.1708 39.603V37.3644C46.1708 35.8126 47.3553 34.5982 48.7729 34.5982H48.8502C50.2642 34.5982 51.4166 35.8334 51.4202 37.3802C51.4315 42.2763 51.4293 43.9155 51.4234 48.3597Z" fill="#6123E3"/>
<path d="M20.3647 20.2374C20.8756 20.2374 21.2899 19.8238 21.2899 19.3138C21.3048 15.7895 24.1712 12.9408 27.7012 12.9408C31.2317 12.9408 34.0977 15.7895 34.1126 19.3138C34.1126 19.8238 34.5269 20.2374 35.0378 20.2374C35.5488 20.2374 35.963 19.8238 35.963 19.3138C35.9459 14.7708 32.2523 11.0973 27.7012 11.0973C23.1507 11.0973 19.4566 14.7708 19.4395 19.3138C19.4395 19.8238 19.8537 20.2374 20.3647 20.2374Z" fill="#6123E3"/>
</g>
<defs>
<filter id="filter0_d_193_211" x="0.980514" y="0.0778036" width="63.3339" height="76.9417" filterUnits="userSpaceOnUse" color-interpolation-filters="sRGB">
<feFlood flood-opacity="0" result="BackgroundImageFix"/>
<feColorMatrix in="SourceAlpha" type="matrix" values="0 0 0 0 0 0 0 0 0 0 0 0 0 0 0 0 0 0 127 0" result="hardAlpha"/>
<feOffset/>
<feGaussianBlur stdDeviation="5.50974"/>
<feComposite in2="hardAlpha" operator="out"/>
<feColorMatrix type="matrix" values="0 0 0 0 0.239216 0 0 0 0 0.815686 0 0 0 0 0.945098 0 0 0 1 0"/>
<feBlend mode="normal" in2="BackgroundImageFix" result="effect1_dropShadow_193_211"/>
<feBlend mode="normal" in="SourceGraphic" in2="effect1_dropShadow_193_211" result="shape"/>
</filter>
</defs>
</svg>
